# Blender v3.2.0 OBJ File: 'tripleSpikes.blend'
# www.blender.org
mtllib tripleSpikes.mtl
o Cone
v 0.000000 0.000000 -0.500000
v 0.097545 0.000000 -0.490393
v 0.191342 0.000000 -0.461940
v 0.277785 0.000000 -0.415735
v 0.353553 0.000000 -0.353553
v 0.415735 0.000000 -0.277785
v 0.461940 0.000000 -0.191342
v 0.490393 0.000000 -0.097545
v 0.500000 0.000000 0.000000
v 0.490393 0.000000 0.097545
v 0.461940 0.000000 0.191342
v 0.415735 0.000000 0.277785
v 0.353553 0.000000 0.353553
v 0.277785 0.000000 0.415735
v 0.191342 0.000000 0.461940
v 0.097545 0.000000 0.490393
v -0.000000 0.000000 0.500000
v -0.097545 0.000000 0.490393
v -0.191342 0.000000 0.461940
v -0.277785 0.000000 0.415735
v -0.353553 0.000000 0.353553
v -0.415735 0.000000 0.277785
v -0.461940 0.000000 0.191342
v -0.490393 0.000000 0.097545
v -0.500000 0.000000 -0.000000
v -0.490393 0.000000 -0.097545
v -0.461940 0.000000 -0.191342
v -0.415735 0.000000 -0.277785
v -0.353553 0.000000 -0.353553
v -0.277785 0.000000 -0.415735
v -0.191342 0.000000 -0.461940
v -0.097545 0.000000 -0.490393
v 0.000000 2.000000 0.000000
vt 0.637343 0.114654
vt 0.255939 0.788178
vt 0.616606 0.090558
vt 0.593096 0.071824
vt 0.566995 0.058596
vt 0.538504 0.050975
vt 0.507840 0.049021
vt 0.475241 0.052747
vt 0.440956 0.062126
vt 0.405248 0.077086
vt 0.368394 0.097511
vt 0.330674 0.123245
vt 0.292381 0.154089
vt 0.253808 0.189807
vt 0.215250 0.230124
vt 0.177006 0.274730
vt 0.139368 0.323283
vt 0.102626 0.375409
vt 0.536523 0.976198
vt 0.565166 0.912860
vt 0.591433 0.848562
vt 0.615121 0.783801
vt 0.636049 0.719074
vt 0.654055 0.654877
vt 0.669001 0.591706
vt 0.680773 0.530044
vt 0.689279 0.470366
vt 0.694454 0.413130
vt 0.696259 0.358778
vt 0.694680 0.307726
vt 0.689728 0.260366
vt 0.681443 0.217064
vt 0.669887 0.178151
vt 0.788297 0.173542
vt 0.829945 0.190793
vt 0.867426 0.215837
vt 0.899302 0.247713
vt 0.924348 0.285196
vt 0.941598 0.326844
vt 0.950393 0.371057
vt 0.950393 0.416136
vt 0.941598 0.460349
vt 0.924347 0.501997
vt 0.899302 0.539479
vt 0.867427 0.571355
vt 0.829944 0.596400
vt 0.788297 0.613651
vt 0.744084 0.622445
vt 0.699004 0.622445
vt 0.654791 0.613651
vt 0.613143 0.596400
vt 0.575661 0.571355
vt 0.543785 0.539479
vt 0.518740 0.501997
vt 0.501489 0.460349
vt 0.492695 0.416136
vt 0.492695 0.371056
vt 0.501489 0.326843
vt 0.518740 0.285196
vt 0.543785 0.247713
vt 0.575661 0.215837
vt 0.613143 0.190793
vt 0.654791 0.173542
vt 0.699004 0.164747
vt 0.744084 0.164747
vt 0.655149 0.143927
vn 0.0951 0.2414 -0.9657
vn 0.2817 0.2414 -0.9286
vn 0.4575 0.2414 -0.8558
vn 0.6156 0.2414 -0.7501
vn 0.7501 0.2414 -0.6156
vn 0.8558 0.2414 -0.4575
vn 0.9286 0.2414 -0.2817
vn 0.9657 0.2414 -0.0951
vn 0.9657 0.2414 0.0951
vn 0.9286 0.2414 0.2817
vn 0.8558 0.2414 0.4575
vn 0.7501 0.2414 0.6156
vn 0.6156 0.2414 0.7501
vn 0.4575 0.2414 0.8558
vn 0.2817 0.2414 0.9286
vn 0.0951 0.2414 0.9657
vn -0.0951 0.2414 0.9657
vn -0.2817 0.2414 0.9286
vn -0.4575 0.2414 0.8558
vn -0.6156 0.2414 0.7501
vn -0.7501 0.2414 0.6156
vn -0.8558 0.2414 0.4575
vn -0.9286 0.2414 0.2817
vn -0.9657 0.2414 0.0951
vn -0.9657 0.2414 -0.0951
vn -0.9286 0.2414 -0.2817
vn -0.8558 0.2414 -0.4575
vn -0.7501 0.2414 -0.6156
vn -0.6156 0.2414 -0.7501
vn -0.4575 0.2414 -0.8558
vn 0.0000 -1.0000 0.0000
vn -0.2817 0.2414 -0.9286
vn -0.0951 0.2414 -0.9657
usemtl Material.002
s off
f 1/1/1 33/2/1 2/3/1
f 2/3/2 33/2/2 3/4/2
f 3/4/3 33/2/3 4/5/3
f 4/5/4 33/2/4 5/6/4
f 5/6/5 33/2/5 6/7/5
f 6/7/6 33/2/6 7/8/6
f 7/8/7 33/2/7 8/9/7
f 8/9/8 33/2/8 9/10/8
f 9/10/9 33/2/9 10/11/9
f 10/11/10 33/2/10 11/12/10
f 11/12/11 33/2/11 12/13/11
f 12/13/12 33/2/12 13/14/12
f 13/14/13 33/2/13 14/15/13
f 14/15/14 33/2/14 15/16/14
f 15/16/15 33/2/15 16/17/15
f 16/17/16 33/2/16 17/18/16
f 17/19/17 33/2/17 18/20/17
f 18/20/18 33/2/18 19/21/18
f 19/21/19 33/2/19 20/22/19
f 20/22/20 33/2/20 21/23/20
f 21/23/21 33/2/21 22/24/21
f 22/24/22 33/2/22 23/25/22
f 23/25/23 33/2/23 24/26/23
f 24/26/24 33/2/24 25/27/24
f 25/27/25 33/2/25 26/28/25
f 26/28/26 33/2/26 27/29/26
f 27/29/27 33/2/27 28/30/27
f 28/30/28 33/2/28 29/31/28
f 29/31/29 33/2/29 30/32/29
f 30/32/30 33/2/30 31/33/30
f 1/34/31 2/35/31 3/36/31 4/37/31 5/38/31 6/39/31 7/40/31 8/41/31 9/42/31 10/43/31 11/44/31 12/45/31 13/46/31 14/47/31 15/48/31 16/49/31 17/50/31 18/51/31 19/52/31 20/53/31 21/54/31 22/55/31 23/56/31 24/57/31 25/58/31 26/59/31 27/60/31 28/61/31 29/62/31 30/63/31 31/64/31 32/65/31
f 31/33/32 33/2/32 32/66/32
f 32/66/33 33/2/33 1/1/33
o Cone.001_Cone.003
v 0.000000 0.000000 -1.500000
v 0.097545 0.000000 -1.490393
v 0.191342 0.000000 -1.461940
v 0.277785 0.000000 -1.415735
v 0.353553 0.000000 -1.353553
v 0.415735 0.000000 -1.277785
v 0.461940 0.000000 -1.191342
v 0.490393 0.000000 -1.097545
v 0.500000 0.000000 -1.000000
v 0.490393 0.000000 -0.902455
v 0.461940 0.000000 -0.808658
v 0.415735 0.000000 -0.722215
v 0.353553 0.000000 -0.646447
v 0.277785 0.000000 -0.584265
v 0.191342 0.000000 -0.538060
v 0.097545 0.000000 -0.509607
v -0.000000 0.000000 -0.500000
v -0.097545 0.000000 -0.509607
v -0.191342 0.000000 -0.538060
v -0.277785 0.000000 -0.584265
v -0.353553 0.000000 -0.646447
v -0.415735 0.000000 -0.722215
v -0.461940 0.000000 -0.808658
v -0.490393 0.000000 -0.902455
v -0.500000 0.000000 -1.000000
v -0.490393 0.000000 -1.097545
v -0.461940 0.000000 -1.191342
v -0.415735 0.000000 -1.277785
v -0.353553 0.000000 -1.353553
v -0.277785 0.000000 -1.415735
v -0.191342 0.000000 -1.461940
v -0.097545 0.000000 -1.490393
v 0.000000 2.000000 -1.000000
vt 0.721105 0.014159
vt 0.644105 1.020039
vt 0.697464 0.022238
vt 0.673414 0.037986
vt 0.649137 0.061283
vt 0.624823 0.091948
vt 0.600657 0.129747
vt 0.576824 0.174389
vt 0.553509 0.225530
vt 0.530890 0.282778
vt 0.509141 0.345693
vt 0.488429 0.413790
vt 0.468914 0.486547
vt 0.450746 0.563405
vt 0.434064 0.643772
vt 0.418996 0.727031
vt 0.405658 0.812543
vt 0.394153 0.899649
vt 0.919751 0.804777
vt 0.921446 0.719441
vt 0.921010 0.636416
vt 0.918445 0.556340
vt 0.913772 0.479828
vt 0.907026 0.407467
vt 0.898259 0.339815
vt 0.887539 0.277391
vt 0.874948 0.220675
vt 0.860582 0.170103
vt 0.844553 0.126063
vt 0.826983 0.088895
vt 0.808008 0.058883
vt 0.787773 0.036259
vt 0.766433 0.021196
vt 0.417040 0.516240
vt 0.458688 0.533491
vt 0.496170 0.558536
vt 0.528046 0.590412
vt 0.553091 0.627894
vt 0.570342 0.669542
vt 0.579136 0.713755
vt 0.579136 0.758834
vt 0.570342 0.803048
vt 0.553091 0.844696
vt 0.528046 0.882178
vt 0.496170 0.914054
vt 0.458688 0.939098
vt 0.417040 0.956349
vt 0.372827 0.965144
vt 0.327747 0.965144
vt 0.283534 0.956349
vt 0.241886 0.939098
vt 0.204405 0.914054
vt 0.172528 0.882178
vt 0.147483 0.844695
vt 0.130232 0.803048
vt 0.121438 0.758835
vt 0.121438 0.713755
vt 0.130232 0.669542
vt 0.147483 0.627894
vt 0.172528 0.590412
vt 0.204404 0.558536
vt 0.241886 0.533491
vt 0.283534 0.516240
vt 0.327747 0.507446
vt 0.372827 0.507446
vt 0.744153 0.013811
vn 0.0951 0.2414 -0.9657
vn 0.2817 0.2414 -0.9286
vn 0.4575 0.2414 -0.8558
vn 0.6156 0.2414 -0.7501
vn 0.7501 0.2414 -0.6156
vn 0.8558 0.2414 -0.4575
vn 0.9286 0.2414 -0.2817
vn 0.9657 0.2414 -0.0951
vn 0.9657 0.2414 0.0951
vn 0.9286 0.2414 0.2817
vn 0.8558 0.2414 0.4575
vn 0.7501 0.2414 0.6156
vn 0.6156 0.2414 0.7501
vn 0.4575 0.2414 0.8558
vn 0.2817 0.2414 0.9286
vn 0.0951 0.2414 0.9657
vn -0.0951 0.2414 0.9657
vn -0.2817 0.2414 0.9286
vn -0.4575 0.2414 0.8558
vn -0.6156 0.2414 0.7501
vn -0.7501 0.2414 0.6156
vn -0.8558 0.2414 0.4575
vn -0.9286 0.2414 0.2817
vn -0.9657 0.2414 0.0951
vn -0.9657 0.2414 -0.0951
vn -0.9286 0.2414 -0.2817
vn -0.8558 0.2414 -0.4575
vn -0.7501 0.2414 -0.6156
vn -0.6156 0.2414 -0.7501
vn -0.4575 0.2414 -0.8558
vn 0.0000 -1.0000 0.0000
vn -0.2817 0.2414 -0.9286
vn -0.0951 0.2414 -0.9657
usemtl Material.004
s off
f 34/67/34 66/68/34 35/69/34
f 35/69/35 66/68/35 36/70/35
f 36/70/36 66/68/36 37/71/36
f 37/71/37 66/68/37 38/72/37
f 38/72/38 66/68/38 39/73/38
f 39/73/39 66/68/39 40/74/39
f 40/74/40 66/68/40 41/75/40
f 41/75/41 66/68/41 42/76/41
f 42/76/42 66/68/42 43/77/42
f 43/77/43 66/68/43 44/78/43
f 44/78/44 66/68/44 45/79/44
f 45/79/45 66/68/45 46/80/45
f 46/80/46 66/68/46 47/81/46
f 47/81/47 66/68/47 48/82/47
f 48/82/48 66/68/48 49/83/48
f 49/83/49 66/68/49 50/84/49
f 50/85/50 66/68/50 51/86/50
f 51/86/51 66/68/51 52/87/51
f 52/87/52 66/68/52 53/88/52
f 53/88/53 66/68/53 54/89/53
f 54/89/54 66/68/54 55/90/54
f 55/90/55 66/68/55 56/91/55
f 56/91/56 66/68/56 57/92/56
f 57/92/57 66/68/57 58/93/57
f 58/93/58 66/68/58 59/94/58
f 59/94/59 66/68/59 60/95/59
f 60/95/60 66/68/60 61/96/60
f 61/96/61 66/68/61 62/97/61
f 62/97/62 66/68/62 63/98/62
f 63/98/63 66/68/63 64/99/63
f 34/100/64 35/101/64 36/102/64 37/103/64 38/104/64 39/105/64 40/106/64 41/107/64 42/108/64 43/109/64 44/110/64 45/111/64 46/112/64 47/113/64 48/114/64 49/115/64 50/116/64 51/117/64 52/118/64 53/119/64 54/120/64 55/121/64 56/122/64 57/123/64 58/124/64 59/125/64 60/126/64 61/127/64 62/128/64 63/129/64 64/130/64 65/131/64
f 64/99/65 66/68/65 65/132/65
f 65/132/66 66/68/66 34/67/66
o Cone.002_Cone.004
v 0.000000 0.000000 0.500000
v 0.097545 0.000000 0.509607
v 0.191342 0.000000 0.538060
v 0.277785 0.000000 0.584265
v 0.353553 0.000000 0.646447
v 0.415735 0.000000 0.722215
v 0.461940 0.000000 0.808658
v 0.490393 0.000000 0.902455
v 0.500000 0.000000 1.000000
v 0.490393 0.000000 1.097545
v 0.461940 0.000000 1.191342
v 0.415735 0.000000 1.277785
v 0.353553 0.000000 1.353553
v 0.277785 0.000000 1.415735
v 0.191342 0.000000 1.461940
v 0.097545 0.000000 1.490393
v -0.000000 0.000000 1.500000
v -0.097545 0.000000 1.490393
v -0.191342 0.000000 1.461940
v -0.277785 0.000000 1.415735
v -0.353553 0.000000 1.353553
v -0.415735 0.000000 1.277785
v -0.461940 0.000000 1.191342
v -0.490393 0.000000 1.097545
v -0.500000 0.000000 1.000000
v -0.490393 0.000000 0.902455
v -0.461940 0.000000 0.808658
v -0.415735 0.000000 0.722215
v -0.353553 0.000000 0.646447
v -0.277785 0.000000 0.584265
v -0.191342 0.000000 0.538060
v -0.097545 0.000000 0.509607
v 0.000000 2.000000 1.000000
vt 0.339769 -0.012720
vt 0.262769 0.993161
vt 0.316128 -0.004640
vt 0.292077 0.011108
vt 0.267801 0.034405
vt 0.243487 0.065070
vt 0.219321 0.102869
vt 0.195488 0.147511
vt 0.172173 0.198652
vt 0.149554 0.255900
vt 0.127805 0.318814
vt 0.107093 0.386912
vt 0.087578 0.459669
vt 0.069410 0.536526
vt 0.052728 0.616894
vt 0.037660 0.700153
vt 0.024322 0.785664
vt 0.012817 0.872771
vt 0.538415 0.777899
vt 0.540110 0.692563
vt 0.539674 0.609538
vt 0.537109 0.529462
vt 0.532436 0.452950
vt 0.525690 0.380589
vt 0.516923 0.312937
vt 0.506203 0.250513
vt 0.493612 0.193797
vt 0.479246 0.143224
vt 0.463217 0.099185
vt 0.445647 0.062017
vt 0.426672 0.032005
vt 0.406437 0.009381
vt 0.385097 -0.005682
vt 0.815175 0.546478
vt 0.856823 0.563729
vt 0.894305 0.588774
vt 0.926181 0.620650
vt 0.951226 0.658132
vt 0.968477 0.699780
vt 0.977271 0.743994
vt 0.977271 0.789073
vt 0.968477 0.833286
vt 0.951226 0.874934
vt 0.926181 0.912416
vt 0.894305 0.944292
vt 0.856823 0.969337
vt 0.815175 0.986588
vt 0.770962 0.995382
vt 0.725882 0.995382
vt 0.681669 0.986588
vt 0.640021 0.969336
vt 0.602540 0.944292
vt 0.570663 0.912416
vt 0.545618 0.874933
vt 0.528367 0.833286
vt 0.519573 0.789073
vt 0.519573 0.743993
vt 0.528367 0.699780
vt 0.545619 0.658132
vt 0.570663 0.620650
vt 0.602539 0.588774
vt 0.640022 0.563729
vt 0.681669 0.546478
vt 0.725882 0.537684
vt 0.770962 0.537684
vt 0.362817 -0.013068
vn 0.0951 0.2414 -0.9657
vn 0.2817 0.2414 -0.9286
vn 0.4575 0.2414 -0.8558
vn 0.6156 0.2414 -0.7501
vn 0.7501 0.2414 -0.6156
vn 0.8558 0.2414 -0.4575
vn 0.9286 0.2414 -0.2817
vn 0.9657 0.2414 -0.0951
vn 0.9657 0.2414 0.0951
vn 0.9286 0.2414 0.2817
vn 0.8558 0.2414 0.4575
vn 0.7501 0.2414 0.6156
vn 0.6156 0.2414 0.7501
vn 0.4575 0.2414 0.8558
vn 0.2817 0.2414 0.9286
vn 0.0951 0.2414 0.9657
vn -0.0951 0.2414 0.9657
vn -0.2817 0.2414 0.9286
vn -0.4575 0.2414 0.8558
vn -0.6156 0.2414 0.7501
vn -0.7501 0.2414 0.6156
vn -0.8558 0.2414 0.4575
vn -0.9286 0.2414 0.2817
vn -0.9657 0.2414 0.0951
vn -0.9657 0.2414 -0.0951
vn -0.9286 0.2414 -0.2817
vn -0.8558 0.2414 -0.4575
vn -0.7501 0.2414 -0.6156
vn -0.6156 0.2414 -0.7501
vn -0.4575 0.2414 -0.8558
vn 0.0000 -1.0000 0.0000
vn -0.2817 0.2414 -0.9286
vn -0.0951 0.2414 -0.9657
usemtl Material.005
s off
f 67/133/67 99/134/67 68/135/67
f 68/135/68 99/134/68 69/136/68
f 69/136/69 99/134/69 70/137/69
f 70/137/70 99/134/70 71/138/70
f 71/138/71 99/134/71 72/139/71
f 72/139/72 99/134/72 73/140/72
f 73/140/73 99/134/73 74/141/73
f 74/141/74 99/134/74 75/142/74
f 75/142/75 99/134/75 76/143/75
f 76/143/76 99/134/76 77/144/76
f 77/144/77 99/134/77 78/145/77
f 78/145/78 99/134/78 79/146/78
f 79/146/79 99/134/79 80/147/79
f 80/147/80 99/134/80 81/148/80
f 81/148/81 99/134/81 82/149/81
f 82/149/82 99/134/82 83/150/82
f 83/151/83 99/134/83 84/152/83
f 84/152/84 99/134/84 85/153/84
f 85/153/85 99/134/85 86/154/85
f 86/154/86 99/134/86 87/155/86
f 87/155/87 99/134/87 88/156/87
f 88/156/88 99/134/88 89/157/88
f 89/157/89 99/134/89 90/158/89
f 90/158/90 99/134/90 91/159/90
f 91/159/91 99/134/91 92/160/91
f 92/160/92 99/134/92 93/161/92
f 93/161/93 99/134/93 94/162/93
f 94/162/94 99/134/94 95/163/94
f 95/163/95 99/134/95 96/164/95
f 96/164/96 99/134/96 97/165/96
f 67/166/97 68/167/97 69/168/97 70/169/97 71/170/97 72/171/97 73/172/97 74/173/97 75/174/97 76/175/97 77/176/97 78/177/97 79/178/97 80/179/97 81/180/97 82/181/97 83/182/97 84/183/97 85/184/97 86/185/97 87/186/97 88/187/97 89/188/97 90/189/97 91/190/97 92/191/97 93/192/97 94/193/97 95/194/97 96/195/97 97/196/97 98/197/97
f 97/165/98 99/134/98 98/198/98
f 98/198/99 99/134/99 67/133/99
